<?xml version="1.0" encoding="utf-8"?>
<!-- Svg Vector Icons : http://www.onlinewebfonts.com/icon -->
<!DOCTYPE svg PUBLIC "-//W3C//DTD SVG 1.1//EN" "http://www.w3.org/Graphics/SVG/1.1/DTD/svg11.dtd">
<svg version="1.1" xmlns="http://www.w3.org/2000/svg" xmlns:xlink="http://www.w3.org/1999/xlink" x="0px" y="0px" viewBox="0 0 1000 1000" enable-background="new 0 0 1000 1000" xml:space="preserve">
<metadata> Svg Vector Icons : http://www.onlinewebfonts.com/icon </metadata>
<g><path d="M484.8,171H10l21.2,75.6h474.9L484.8,171z"/><path d="M521.4,450.9c-7.9,8-18.4,12.3-29.7,12.3h0c-11.2,0-21.8-4.4-29.7-12.3c-7.9-7.9-12.3-18.5-12.3-29.8c0-11.2,4.4-21.8,12.3-29.8l7.4-7.4l-7.4-7.5l-19.2,19.3c-9.9,10-15.4,23.2-15.4,37.3c0,14.1,5.5,27.3,15.4,37.2c9.9,10,23.1,15.4,37.1,15.4c14,0,27.2-5.5,37.1-15.4l19.2-19.3l14.8,14.9l-22.2-22.3L521.4,450.9z"/><path d="M586.1,182.6h237.4L813,144.8H575.5L586.1,182.6z"/><path d="M988.5,692.8l-87.7-299.4l-7.3-24.8H868H669.4V289H134.1v312.2H40.2l15.1,53.7h78.8v178.4h32.6c4.7,22,15.7,41.7,31.1,57.1l0.1,0.1c20.7,20.7,49.3,33.5,80.8,33.5c31.5,0,60.1-12.8,80.8-33.5l0.1-0.1c15.4-15.3,26.4-35.1,31.1-57.1h240.5h38.2c4.6,22,15.7,41.7,31,57.1l0.1,0.1c20.7,20.7,49.3,33.5,80.8,33.5c31.5,0,60.1-12.8,80.8-33.6l0.1-0.1c15.3-15.3,26.4-35.1,31-57.1h62.5H990V799v-96.7v-4.5L988.5,692.8z M428,380.8l19.2-19.3l14.8-14.9l37.1,37.2l-22.3,22.3c-4,4-6.1,9.3-6.1,14.9c0,5.6,2.2,10.9,6.1,14.9c4,4,9.2,6.2,14.8,6.2c5.6,0,10.9-2.2,14.8-6.2l22.3-22.3l37.1,37.2l-14.8,14.9l-19.2,19.3c-13.9,13.9-32.3,21.6-51.9,21.6c-19.6,0-38.1-7.7-51.9-21.6c-13.9-13.9-21.5-32.4-21.5-52.1C406.5,413.3,414.1,394.7,428,380.8z M463.9,557.9l60.2,63.2L509.2,636L449,572.8L463.9,557.9z M282.6,348.5l14.8,14.9c6,6,9.2,13.9,9.2,22.4c0,4.7-1.1,9.3-3,13.4l60.1,58.1l-14.6,15.2l-60.3-58.3c-4.2,2.1-8.9,3.2-13.7,3.2c-8.4,0-16.3-3.3-22.3-9.3l-14.8-14.9L282.6,348.5z M311.2,842.1c-8.3,8.3-19.8,13.4-32.5,13.4c-12.7,0-24.2-5.1-32.5-13.4c-8.3-8.3-13.3-19.8-13.3-32.5c0-12.7,5.1-24.2,13.3-32.5c8.3-8.3,19.7-13.4,32.5-13.4c12.7,0,24.2,5.1,32.5,13.4c8.3,8.3,13.4,19.8,13.4,32.5C324.5,822.3,319.4,833.8,311.2,842.1z M322.8,665.2c-9.9,10-23.1,15.4-37.1,15.4c-14,0-27.2-5.5-37.1-15.4c-9.9-10-15.4-23.2-15.4-37.2c0-14.1,5.5-27.3,15.4-37.2l1.2-1.1l108.6-79.2l12.3,17l-107.9,78.7c-5.6,5.9-8.7,13.6-8.7,21.8c0,8.4,3.3,16.4,9.2,22.3c11.7,11.8,32,12,44,0.5l78.4-108.2l17,12.4L322.8,665.2z M296.5,617.1v21.1h-21v-21.1H296.5z M371.3,494.2l14.8-15l41.6,41.3l-14.7,15L371.3,494.2z M553.7,665.8c-10.2,10.3-23.7,15.4-37.1,15.4c-13.4,0-26.8-5.1-37-15.4L413,596.1l14.8-14.9l66.7,69.8c12.2,12.3,32.2,12.2,44.4-0.1c12.3-12.3,12.2-32.4-0.1-44.8l-66.5-69.6l14.8-14.9l66.5,69.6C574.2,611.8,574.2,645.3,553.7,665.8z M813.7,842.1c-8.3,8.3-19.8,13.4-32.5,13.4c-12.7,0-24.2-5.1-32.5-13.4c-8.3-8.3-13.4-19.8-13.4-32.5c0-12.7,5.1-24.2,13.4-32.5c8.3-8.3,19.8-13.4,32.5-13.4c12.7,0,24.2,5.1,32.5,13.4c8.3,8.3,13.4,19.8,13.4,32.5C827.1,822.3,822,833.8,813.7,842.1z M921.4,764.7h-34.9c-5.8-13.5-14.1-25.7-24.3-36l-0.1-0.1c-20.8-20.7-49.3-33.5-80.8-33.5c-31.5,0-60.1,12.8-80.8,33.5l-0.1,0.1l-0.7,0.7V437.1h142.8l79,269.6L921.4,764.7L921.4,764.7z"/><path d="M282.6,393.2c2-2,3.1-4.6,3.1-7.4c0-2.8-1.1-5.5-3.1-7.5h0l-14.8,14.9c2,2,4.6,3.1,7.4,3.1C278,396.2,280.6,395.1,282.6,393.2z"/><path d="M679.9,129.6L664.8,76H327.5l15,53.7H679.9z"/></g>
</svg>